P3
16 16
255
82 82 82 
125 125 125 
178 178 178 
221 221 221 
232 232 232 
205 205 205 
154 154 154 
107 107 107 
86 86 86 
92 92 92 
109 109 109 
113 113 113 
99 99 99 
79 79 79 
78 78 78 
103 103 103 
61 61 61 
112 112 112 
166 166 166 
204 204 204 
211 211 211 
185 185 185 
134 134 134 
82 82 82 
48 48 48 
41 41 41 
47 47 47 
51 51 51 
47 47 47 
39 39 39 
38 38 38 
55 55 55 
17 17 17 
64 64 64 
114 114 114 
148 148 148 
153 153 153 
132 132 132 
93 93 93 
48 48 48 
10 10 10 
11 11 11 
20 20 20 
23 23 23 
23 23 23 
19 19 19 
11 11 11 
9 9 9 
50 50 50 
14 14 14 
33 33 33 
71 71 71 
84 84 84 
77 77 77 
55 55 55 
19 19 19 
22 22 22 
63 63 63 
94 94 94 
112 112 112 
113 113 113 
100 100 100 
73 73 73 
32 32 32 
127 127 127 
103 103 103 
53 53 53 
0 0 0 
39 39 39 
57 57 57 
56 56 56 
29 29 29 
24 24 24 
92 92 92 
153 153 153 
190 190 190 
196 196 196 
173 173 173 
129 129 129 
71 71 71 
193 193 193 
177 177 177 
119 119 119 
39 39 39 
33 33 33 
81 81 81 
98 98 98 
78 78 78 
14 14 14 
77 77 77 
166 166 166 
224 224 224 
236 236 236 
209 209 209 
156 156 156 
95 95 95 
232 232 232 
217 217 217 
149 149 149 
49 49 49 
47 47 47 
116 116 116 
149 149 149 
138 138 138 
75 75 75 
24 24 24 
127 127 127 
199 199 199 
221 221 221 
197 197 197 
146 146 146 
95 95 95 
237 237 237 
220 220 220 
148 148 148 
43 43 43 
58 58 58 
132 132 132 
172 172 172 
173 173 173 
123 123 123 
35 35 35 
63 63 63 
141 141 141 
175 175 175 
160 160 160 
119 119 119 
80 80 80 
210 210 210 
193 193 193 
129 129 129 
37 37 37 
52 52 52 
117 117 117 
156 156 156 
166 166 166 
135 135 135 
67 67 67 
18 18 18 
94 94 94 
133 133 133 
130 130 130 
99 99 99 
70 70 70 
173 173 173 
157 157 157 
103 103 103 
31 31 31 
35 35 35 
83 83 83 
115 115 115 
125 125 125 
106 106 106 
54 54 54 
16 16 16 
79 79 79 
116 116 116 
117 117 117 
95 95 95 
69 69 69 
157 157 157 
140 140 140 
93 93 93 
36 36 36 
12 12 12 
47 47 47 
70 70 70 
76 76 76 
59 59 59 
15 15 15 
41 41 41 
88 88 88 
113 113 113 
111 111 111 
90 90 90 
61 61 61 
166 166 166 
148 148 148 
106 106 106 
56 56 56 
12 12 12 
19 19 19 
39 39 39 
46 46 46 
35 35 35 
1 1 1 
44 44 44 
80 80 80 
94 94 94 
84 84 84 
58 58 58 
29 29 29 
178 178 178 
161 161 161 
123 123 123 
76 76 76 
31 31 31 
4 4 4 
29 29 29 
47 47 47 
54 54 54 
39 39 39 
8 8 8 
22 22 22 
37 37 37 
27 27 27 
1 1 1 
21 21 21 
161 161 161 
149 149 149 
119 119 119 
78 78 78 
39 39 39 
4 4 4 
28 28 28 
62 62 62 
94 94 94 
107 107 107 
94 94 94 
68 68 68 
45 45 45 
40 40 40 
51 51 51 
62 62 62 
98 98 98 
92 92 92 
74 74 74 
54 54 54 
38 38 38 
19 19 19 
11 11 11 
60 60 60 
117 117 117 
159 159 159 
168 168 168 
148 148 148 
116 116 116 
87 87 87 
69 69 69 
58 58 58 
0 0 0 
0 0 0 
1 1 1 
13 13 13 
34 34 34 
47 47 47 
31 31 31 
20 20 20 
94 94 94 
160 160 160 
193 193 193 
186 186 186 
146 146 146 
87 87 87 
34 34 34 
0 0 0 
