P3
16 16
255
98 98 98 
92 92 92 
74 74 74 
52 52 52 
32 32 32 
11 11 11 
19 19 19 
66 66 66 
119 119 119 
148 148 148 
126 126 126 
52 52 52 
45 45 45 
118 118 118 
131 131 131 
92 92 92 
0 0 0 
0 0 0 
1 1 1 
13 13 13 
34 34 34 
47 47 47 
30 30 30 
21 21 21 
94 94 94 
154 154 154 
166 166 166 
118 118 118 
35 35 35 
30 30 30 
47 47 47 
19 19 19 
98 98 98 
92 92 92 
71 71 71 
26 26 26 
34 34 34 
83 83 83 
91 91 91 
49 49 49 
28 28 28 
108 108 108 
153 153 153 
143 143 143 
97 97 97 
55 55 55 
44 44 44 
59 59 59 
162 162 162 
152 152 152 
119 119 119 
51 51 51 
39 39 39 
118 118 118 
150 150 150 
125 125 125 
56 56 56 
28 28 28 
94 94 94 
118 118 118 
110 110 110 
97 97 97 
95 95 95 
100 100 100 
179 179 179 
177 177 177 
147 147 147 
76 76 76 
28 28 28 
127 127 127 
182 182 182 
177 177 177 
125 125 125 
48 48 48 
21 21 21 
62 62 62 
78 78 78 
85 85 85 
90 90 90 
88 88 88 
157 157 157 
173 173 173 
164 164 164 
114 114 114 
20 20 20 
86 86 86 
162 162 162 
180 180 180 
145 145 145 
80 80 80 
15 15 15 
24 24 24 
41 41 41 
48 48 48 
51 51 51 
46 46 46 
108 108 108 
149 149 149 
171 171 171 
159 159 159 
97 97 97 
0 0 0 
85 85 85 
120 120 120 
95 95 95 
39 39 39 
12 12 12 
38 38 38 
38 38 38 
25 25 25 
14 14 14 
0 0 0 
47 47 47 
108 108 108 
163 163 163 
189 189 189 
165 165 165 
95 95 95 
20 20 20 
15 15 15 
2 2 2 
49 49 49 
86 86 86 
94 94 94 
71 71 71 
34 34 34 
0 0 0 
24 24 24 
20 20 20 
50 50 50 
127 127 127 
180 180 180 
187 187 187 
150 150 150 
101 101 101 
76 76 76 
91 91 91 
128 128 128 
151 151 151 
145 145 145 
109 109 109 
58 58 58 
11 11 11 
18 18 18 
95 95 95 
28 28 28 
57 57 57 
127 127 127 
157 157 157 
148 148 148 
122 122 122 
107 107 107 
119 119 119 
145 145 145 
158 158 158 
148 148 148 
115 115 115 
69 69 69 
24 24 24 
1 1 1 
170 170 170 
110 110 110 
28 28 28 
49 49 49 
96 96 96 
105 105 105 
90 90 90 
75 75 75 
78 78 78 
92 92 92 
98 98 98 
92 92 92 
73 73 73 
43 43 43 
10 10 10 
7 7 7 
221 221 221 
168 168 168 
95 95 95 
21 21 21 
30 30 30 
47 47 47 
34 34 34 
13 13 13 
1 1 1 
0 0 0 
0 0 0 
0 0 0 
1 1 1 
13 13 13 
35 35 35 
48 48 48 
228 228 228 
183 183 183 
125 125 125 
68 68 68 
26 26 26 
10 10 10 
23 23 23 
49 49 49 
75 75 75 
92 92 92 
98 98 98 
92 92 92 
78 78 78 
75 75 75 
90 90 90 
105 105 105 
191 191 191 
164 164 164 
135 135 135 
109 109 109 
84 84 84 
70 70 70 
75 75 75 
96 96 96 
124 124 124 
150 150 150 
162 162 162 
152 152 152 
127 127 127 
112 112 112 
124 124 124 
150 150 150 
139 139 139 
138 138 138 
146 146 146 
154 154 154 
148 148 148 
132 132 132 
120 120 120 
119 119 119 
136 136 136 
162 162 162 
179 179 179 
172 172 172 
143 143 143 
120 120 120 
129 129 129 
162 162 162 
100 100 100 
126 126 126 
164 164 164 
197 197 197 
205 205 205 
183 183 183 
148 148 148 
121 121 121 
119 119 119 
138 138 138 
157 157 157 
156 156 156 
131 131 131 
107 107 107 
110 110 110 
144 144 144 
