P3
16 16
255
140 140 140 
168 168 168 
172 172 172 
149 149 149 
109 109 109 
72 72 72 
57 57 57 
67 67 67 
90 90 90 
109 109 109 
113 113 113 
98 98 98 
64 64 64 
7 7 7 
60 60 60 
109 109 109 
91 91 91 
134 134 134 
165 165 165 
173 173 173 
157 157 157 
129 129 129 
105 105 105 
91 91 91 
86 86 86 
83 83 83 
78 78 78 
62 62 62 
28 28 28 
30 30 30 
100 100 100 
149 149 149 
50 50 50 
103 103 103 
150 150 150 
177 177 177 
179 179 179 
160 160 160 
133 133 133 
105 105 105 
85 85 85 
75 75 75 
69 69 69 
57 57 57 
23 23 23 
37 37 37 
110 110 110 
164 164 164 
19 19 19 
75 75 75 
122 122 122 
152 152 152 
162 162 162 
150 150 150 
124 124 124 
97 97 97 
84 84 84 
87 87 87 
93 93 93 
85 85 85 
51 51 51 
13 13 13 
92 92 92 
153 153 153 
11 11 11 
38 38 38 
73 73 73 
92 92 92 
98 98 98 
92 92 92 
76 76 76 
67 67 67 
82 82 82 
114 114 114 
138 138 138 
135 135 135 
98 98 98 
26 26 26 
59 59 59 
124 124 124 
44 44 44 
12 12 12 
1 1 1 
0 0 0 
0 0 0 
0 0 0 
2 2 2 
26 26 26 
79 79 79 
144 144 144 
188 188 188 
188 188 188 
141 141 141 
61 61 61 
27 27 27 
91 91 91 
63 63 63 
59 59 59 
75 75 75 
92 92 92 
98 98 98 
92 92 92 
69 69 69 
14 14 14 
74 74 74 
166 166 166 
225 225 225 
224 224 224 
168 168 168 
81 81 81 
7 7 7 
67 67 67 
67 67 67 
86 86 86 
120 120 120 
148 148 148 
157 157 157 
144 144 144 
109 109 109 
38 38 38 
64 64 64 
168 168 168 
232 232 232 
231 231 231 
173 173 173 
84 84 84 
0 0 0 
56 56 56 
65 65 65 
88 88 88 
120 120 120 
139 139 139 
139 139 139 
121 121 121 
88 88 88 
28 28 28 
59 59 59 
149 149 149 
205 205 205 
206 206 206 
154 154 154 
75 75 75 
0 0 0 
49 49 49 
58 58 58 
64 64 64 
68 68 68 
59 59 59 
43 43 43 
26 26 26 
11 11 11 
12 12 12 
57 57 57 
113 113 113 
152 152 152 
154 154 154 
115 115 115 
54 54 54 
0 0 0 
32 32 32 
38 38 38 
14 14 14 
17 17 17 
54 54 54 
82 82 82 
87 87 87 
71 71 71 
49 49 49 
43 43 43 
61 61 61 
81 81 81 
82 82 82 
58 58 58 
24 24 24 
0 0 0 
6 6 6 
0 0 0 
40 40 40 
95 95 95 
146 146 146 
171 171 171 
156 156 156 
108 108 108 
48 48 48 
6 6 6 
5 5 5 
0 0 0 
0 0 0 
7 7 7 
10 10 10 
0 0 0 
23 23 23 
44 44 44 
83 83 83 
135 135 135 
178 178 178 
187 187 187 
148 148 148 
76 76 76 
0 0 0 
53 53 53 
77 77 77 
83 83 83 
80 80 80 
70 70 70 
45 45 45 
0 0 0 
51 51 51 
71 71 71 
96 96 96 
131 131 131 
154 154 154 
142 142 142 
84 84 84 
0 0 0 
76 76 76 
123 123 123 
147 147 147 
153 153 153 
145 145 145 
122 122 122 
74 74 74 
0 0 0 
75 75 75 
53 53 53 
65 65 65 
87 87 87 
97 97 97 
69 69 69 
0 0 0 
83 83 83 
149 149 149 
183 183 183 
196 196 196 
196 196 196 
184 184 184 
153 153 153 
92 92 92 
0 0 0 
92 92 92 
12 12 12 
1 1 1 
22 22 22 
32 32 32 
0 0 0 
68 68 68 
142 142 142 
189 189 189 
204 204 204 
205 205 205 
201 201 201 
191 191 191 
163 163 163 
98 98 98 
0 0 0 
98 98 98 
