P3
16 16
255
52 52 52 
28 28 28 
25 25 25 
32 32 32 
40 40 40 
62 62 62 
108 108 108 
165 165 165 
205 205 205 
210 210 210 
179 179 179 
126 126 126 
70 70 70 
27 27 27 
1 1 1 
12 12 12 
77 77 77 
79 79 79 
87 87 87 
90 90 90 
81 81 81 
70 70 70 
78 78 78 
106 106 106 
137 137 137 
155 155 155 
157 157 157 
146 146 146 
124 124 124 
97 97 97 
70 70 70 
47 47 47 
81 81 81 
101 101 101 
113 113 113 
110 110 110 
89 89 89 
62 62 62 
44 44 44 
45 45 45 
59 59 59 
82 82 82 
109 109 109 
138 138 138 
157 157 157 
156 156 156 
136 136 136 
101 101 101 
76 76 76 
92 92 92 
97 97 97 
84 84 84 
58 58 58 
29 29 29 
6 6 6 
8 8 8 
10 10 10 
7 7 7 
47 47 47 
106 106 106 
161 161 161 
190 190 190 
181 181 181 
145 145 145 
76 76 76 
70 70 70 
55 55 55 
30 30 30 
1 1 1 
21 21 21 
38 38 38 
55 55 55 
67 67 67 
59 59 59 
19 19 19 
50 50 50 
129 129 129 
183 183 183 
192 192 192 
170 170 170 
72 72 72 
39 39 39 
5 5 5 
26 26 26 
52 52 52 
68 68 68 
81 81 81 
100 100 100 
120 120 120 
124 124 124 
95 95 95 
27 27 27 
58 58 58 
129 129 129 
164 164 164 
172 172 172 
49 49 49 
0 0 0 
38 38 38 
64 64 64 
82 82 82 
93 93 93 
105 105 105 
132 132 132 
166 166 166 
186 186 186 
170 170 170 
110 110 110 
27 27 27 
51 51 51 
108 108 108 
149 149 149 
0 0 0 
49 49 49 
72 72 72 
76 76 76 
75 75 75 
81 81 81 
99 99 99 
138 138 138 
191 191 191 
228 228 228 
221 221 221 
170 170 170 
95 95 95 
20 20 20 
47 47 47 
109 109 109 
70 70 70 
104 104 104 
97 97 97 
66 66 66 
41 41 41 
42 42 42 
68 68 68 
119 119 119 
183 183 183 
228 228 228 
228 228 228 
185 185 185 
121 121 121 
56 56 56 
7 7 7 
73 73 73 
142 142 142 
152 152 152 
110 110 110 
42 42 42 
7 7 7 
10 10 10 
22 22 22 
78 78 78 
141 141 141 
183 183 183 
186 186 186 
152 152 152 
99 99 99 
47 47 47 
2 2 2 
57 57 57 
189 189 189 
174 174 174 
102 102 102 
7 7 7 
60 60 60 
70 70 70 
34 34 34 
20 20 20 
76 76 76 
113 113 113 
118 118 118 
93 93 93 
55 55 55 
18 18 18 
17 17 17 
55 55 55 
204 204 204 
168 168 168 
78 78 78 
30 30 30 
108 108 108 
126 126 126 
96 96 96 
41 41 41 
14 14 14 
51 51 51 
61 61 61 
50 50 50 
30 30 30 
7 7 7 
18 18 18 
46 46 46 
204 204 204 
160 160 160 
65 65 65 
45 45 45 
128 128 128 
156 156 156 
137 137 137 
87 87 87 
29 29 29 
15 15 15 
41 41 41 
49 49 49 
49 49 49 
38 38 38 
15 15 15 
13 13 13 
201 201 201 
160 160 160 
80 80 80 
18 18 18 
100 100 100 
143 143 143 
141 141 141 
107 107 107 
60 60 60 
12 12 12 
32 32 32 
70 70 70 
96 96 96 
98 98 98 
76 76 76 
39 39 39 
191 191 191 
164 164 164 
107 107 107 
31 31 31 
43 43 43 
94 94 94 
113 113 113 
107 107 107 
87 87 87 
52 52 52 
0 0 0 
66 66 66 
126 126 126 
152 152 152 
136 136 136 
95 95 95 
163 163 163 
149 149 149 
113 113 113 
62 62 62 
8 8 8 
35 35 35 
68 68 68 
93 93 93 
110 110 110 
104 104 104 
59 59 59 
21 21 21 
108 108 108 
163 163 163 
164 164 164 
121 121 121 
