P3
16 16
255
63 63 63 
75 75 75 
84 84 84 
85 85 85 
78 78 78 
63 63 63 
44 44 44 
24 24 24 
9 9 9 
1 1 1 
0 0 0 
0 0 0 
2 2 2 
4 4 4 
4 4 4 
0 0 0 
48 48 48 
65 65 65 
77 77 77 
80 80 80 
73 73 73 
57 57 57 
34 34 34 
10 10 10 
8 8 8 
19 19 19 
21 21 21 
20 20 20 
20 20 20 
19 19 19 
21 21 21 
25 25 25 
29 29 29 
49 49 49 
65 65 65 
72 72 72 
67 67 67 
50 50 50 
26 26 26 
0 0 0 
21 21 21 
32 32 32 
34 34 34 
34 34 34 
34 34 34 
34 34 34 
36 36 36 
39 39 39 
11 11 11 
35 35 35 
54 54 54 
64 64 64 
62 62 62 
47 47 47 
24 24 24 
0 0 0 
22 22 22 
33 33 33 
36 36 36 
36 36 36 
36 36 36 
36 36 36 
37 37 37 
38 38 38 
1 1 1 
26 26 26 
48 48 48 
61 61 61 
62 62 62 
52 52 52 
32 32 32 
9 9 9 
10 10 10 
21 21 21 
23 23 23 
23 23 23 
23 23 23 
23 23 23 
23 23 23 
23 23 23 
0 0 0 
25 25 25 
48 48 48 
64 64 64 
69 69 69 
63 63 63 
48 48 48 
29 29 29 
11 11 11 
1 1 1 
0 0 0 
0 0 0 
0 0 0 
0 0 0 
0 0 0 
0 0 0 
1 1 1 
27 27 27 
50 50 50 
69 69 69 
78 78 78 
76 76 76 
65 65 65 
49 49 49 
34 34 34 
25 25 25 
23 23 23 
23 23 23 
23 23 23 
23 23 23 
23 23 23 
24 24 24 
11 11 11 
35 35 35 
59 59 59 
77 77 77 
87 87 87 
87 87 87 
78 78 78 
63 63 63 
48 48 48 
39 39 39 
36 36 36 
34 34 34 
34 34 34 
36 36 36 
38 38 38 
42 42 42 
29 29 29 
50 50 50 
71 71 71 
88 88 88 
97 97 97 
95 95 95 
85 85 85 
68 68 68 
52 52 52 
40 40 40 
34 34 34 
31 31 31 
30 30 30 
33 33 33 
40 40 40 
49 49 49 
48 48 48 
66 66 66 
83 83 83 
97 97 97 
102 102 102 
98 98 98 
85 85 85 
65 65 65 
45 45 45 
30 30 30 
21 21 21 
14 14 14 
12 12 12 
17 17 17 
29 29 29 
45 45 45 
63 63 63 
76 76 76 
89 89 89 
99 99 99 
102 102 102 
95 95 95 
79 79 79 
56 56 56 
33 33 33 
14 14 14 
0 0 0 
11 11 11 
14 14 14 
7 7 7 
9 9 9 
31 31 31 
69 69 69 
78 78 78 
87 87 87 
95 95 95 
96 96 96 
88 88 88 
70 70 70 
46 46 46 
20 20 20 
2 2 2 
21 21 21 
36 36 36 
41 41 41 
33 33 33 
13 13 13 
13 13 13 
64 64 64 
68 68 68 
76 76 76 
82 82 82 
84 84 84 
78 78 78 
62 62 62 
39 39 39 
12 12 12 
12 12 12 
34 34 34 
53 53 53 
61 61 61 
53 53 53 
32 32 32 
2 2 2 
48 48 48 
50 50 50 
57 57 57 
65 65 65 
71 71 71 
69 69 69 
58 58 58 
39 39 39 
14 14 14 
11 11 11 
36 36 36 
57 57 57 
67 67 67 
61 61 61 
40 40 40 
12 12 12 
25 25 25 
27 27 27 
34 34 34 
46 46 46 
58 58 58 
64 64 64 
61 61 61 
48 48 48 
27 27 27 
2 2 2 
23 23 23 
46 46 46 
57 57 57 
53 53 53 
36 36 36 
10 10 10 
0 0 0 
1 1 1 
11 11 11 
29 29 29 
48 48 48 
63 63 63 
69 69 69 
64 64 64 
48 48 48 
25 25 25 
0 0 0 
23 23 23 
36 36 36 
34 34 34 
21 21 21 
0 0 0 
