P3
16 16
255
19 19 19 
25 25 25 
27 27 27 
25 25 25 
20 20 20 
13 13 13 
3 3 3 
30 30 30 
63 63 63 
96 96 96 
123 123 123 
139 139 139 
142 142 142 
134 134 134 
118 118 118 
103 103 103 
33 33 33 
33 33 33 
39 39 39 
39 39 39 
31 31 31 
20 20 20 
13 13 13 
15 15 15 
25 25 25 
40 40 40 
57 57 57 
72 72 72 
78 78 78 
74 74 74 
62 62 62 
56 56 56 
75 75 75 
69 69 69 
75 75 75 
69 69 69 
47 47 47 
20 20 20 
2 2 2 
13 13 13 
15 15 15 
13 13 13 
6 6 6 
7 7 7 
23 23 23 
35 35 35 
42 42 42 
55 55 55 
110 110 110 
94 94 94 
89 89 89 
73 73 73 
35 35 35 
7 7 7 
38 38 38 
51 51 51 
50 50 50 
48 48 48 
47 47 47 
37 37 37 
14 14 14 
15 15 15 
47 47 47 
84 84 84 
141 141 141 
120 120 120 
103 103 103 
70 70 70 
13 13 13 
44 44 44 
81 81 81 
89 89 89 
80 80 80 
73 73 73 
72 72 72 
65 65 65 
39 39 39 
6 6 6 
59 59 59 
114 114 114 
166 166 166 
152 152 152 
127 127 127 
77 77 77 
1 1 1 
74 74 74 
120 120 120 
128 128 128 
117 117 117 
106 106 106 
102 102 102 
95 95 95 
64 64 64 
7 7 7 
63 63 63 
130 130 130 
173 173 173 
177 177 177 
152 152 152 
92 92 92 
0 0 0 
92 92 92 
150 150 150 
166 166 166 
162 162 162 
154 154 154 
150 150 150 
138 138 138 
101 101 101 
32 32 32 
50 50 50 
124 124 124 
157 157 157 
179 179 179 
162 162 162 
98 98 98 
0 0 0 
98 98 98 
163 163 163 
191 191 191 
201 201 201 
205 205 205 
204 204 204 
189 189 189 
141 141 141 
62 62 62 
27 27 27 
100 100 100 
130 130 130 
160 160 160 
150 150 150 
92 92 92 
0 0 0 
92 92 92 
154 154 154 
189 189 189 
213 213 213 
231 231 231 
240 240 240 
224 224 224 
168 168 168 
81 81 81 
8 8 8 
72 72 72 
106 106 106 
133 133 133 
124 124 124 
75 75 75 
1 1 1 
73 73 73 
123 123 123 
157 157 157 
189 189 189 
220 220 220 
239 239 239 
229 229 229 
172 172 172 
84 84 84 
0 0 0 
52 52 52 
90 90 90 
107 107 107 
97 97 97 
62 62 62 
12 12 12 
38 38 38 
75 75 75 
105 105 105 
138 138 138 
177 177 177 
206 206 206 
203 203 203 
153 153 153 
75 75 75 
0 0 0 
39 39 39 
70 70 70 
83 83 83 
83 83 83 
69 69 69 
44 44 44 
11 11 11 
19 19 19 
48 48 48 
84 84 84 
124 124 124 
153 153 153 
156 156 156 
124 124 124 
70 70 70 
16 16 16 
12 12 12 
40 40 40 
66 66 66 
89 89 89 
101 101 101 
96 96 96 
71 71 71 
33 33 33 
5 5 5 
46 46 46 
82 82 82 
106 106 106 
116 116 116 
111 111 111 
90 90 90 
61 61 61 
42 42 42 
3 3 3 
56 56 56 
111 111 111 
149 149 149 
157 157 157 
130 130 130 
75 75 75 
15 15 15 
32 32 32 
64 64 64 
84 84 84 
102 102 102 
119 119 119 
128 128 128 
122 122 122 
108 108 108 
32 32 32 
50 50 50 
134 134 134 
194 194 194 
209 209 209 
174 174 174 
102 102 102 
22 22 22 
36 36 36 
68 68 68 
85 85 85 
105 105 105 
132 132 132 
158 158 158 
165 165 165 
153 153 153 
47 47 47 
51 51 51 
151 151 151 
221 221 221 
237 237 237 
196 196 196 
114 114 114 
25 25 25 
41 41 41 
76 76 76 
89 89 89 
101 101 101 
123 123 123 
149 149 149 
160 160 160 
149 149 149 
