P3
16 16
255
97 97 97 
92 92 92 
74 74 74 
34 34 34 
20 20 20 
63 63 63 
79 79 79 
63 63 63 
26 26 26 
14 14 14 
40 40 40 
44 44 44 
27 27 27 
3 3 3 
12 12 12 
19 19 19 
66 66 66 
80 80 80 
82 82 82 
64 64 64 
26 26 26 
17 17 17 
53 53 53 
74 74 74 
79 79 79 
74 74 74 
63 63 63 
50 50 50 
31 31 31 
5 5 5 
20 20 20 
34 34 34 
85 85 85 
114 114 114 
124 124 124 
108 108 108 
69 69 69 
12 12 12 
49 49 49 
103 103 103 
143 143 143 
166 166 166 
167 167 167 
145 145 145 
100 100 100 
40 40 40 
10 10 10 
31 31 31 
129 129 129 
165 165 165 
173 173 173 
149 149 149 
97 97 97 
24 24 24 
55 55 55 
129 129 129 
188 188 188 
224 224 224 
229 229 229 
202 202 202 
147 147 147 
81 81 81 
32 32 32 
18 18 18 
165 165 165 
199 199 199 
202 202 202 
171 171 171 
109 109 109 
28 28 28 
56 56 56 
130 130 130 
188 188 188 
223 223 223 
228 228 228 
202 202 202 
154 154 154 
103 103 103 
72 72 72 
73 73 73 
180 180 180 
204 204 204 
201 201 201 
168 168 168 
109 109 109 
37 37 37 
35 35 35 
96 96 96 
141 141 141 
168 168 168 
171 171 171 
152 152 152 
118 118 118 
88 88 88 
76 76 76 
88 88 88 
169 169 169 
182 182 182 
170 170 170 
143 143 143 
104 104 104 
57 57 57 
11 11 11 
28 28 28 
61 61 61 
80 80 80 
83 83 83 
74 74 74 
58 58 58 
46 46 46 
44 44 44 
56 56 56 
136 136 136 
136 136 136 
118 118 118 
102 102 102 
90 90 90 
79 79 79 
67 67 67 
50 50 50 
27 27 27 
8 8 8 
0 0 0 
0 0 0 
0 0 0 
0 0 0 
0 0 0 
0 0 0 
93 93 93 
79 79 79 
58 58 58 
54 54 54 
69 69 69 
89 89 89 
105 105 105 
107 107 107 
91 91 91 
69 69 69 
52 52 52 
42 42 42 
33 33 33 
31 31 31 
39 39 39 
55 55 55 
56 56 56 
27 27 27 
2 2 2 
8 8 8 
41 41 41 
79 79 79 
109 109 109 
120 120 120 
109 109 109 
83 83 83 
54 54 54 
33 33 33 
22 22 22 
26 26 26 
51 51 51 
87 87 87 
30 30 30 
10 10 10 
40 40 40 
32 32 32 
4 4 4 
48 48 48 
81 81 81 
95 95 95 
87 87 87 
57 57 57 
19 19 19 
10 10 10 
25 25 25 
14 14 14 
25 25 25 
79 79 79 
0 0 0 
42 42 42 
74 74 74 
71 71 71 
38 38 38 
4 4 4 
39 39 39 
58 58 58 
54 54 54 
27 27 27 
15 15 15 
54 54 54 
74 74 74 
65 65 65 
23 23 23 
35 35 35 
48 48 48 
74 74 74 
96 96 96 
96 96 96 
72 72 72 
34 34 34 
1 1 1 
29 29 29 
40 40 40 
23 23 23 
17 17 17 
63 63 63 
93 93 93 
95 95 95 
66 66 66 
19 19 19 
99 99 99 
100 100 100 
102 102 102 
99 99 99 
88 88 88 
68 68 68 
38 38 38 
1 1 1 
31 31 31 
39 39 39 
12 12 12 
34 34 34 
77 77 77 
93 93 93 
83 83 83 
59 59 59 
130 130 130 
107 107 107 
93 93 93 
93 93 93 
102 102 102 
108 108 108 
95 95 95 
54 54 54 
0 0 0 
41 41 41 
44 44 44 
11 11 11 
34 34 34 
64 64 64 
74 74 74 
77 77 77 
123 123 123 
93 93 93 
81 81 81 
93 93 93 
124 124 124 
155 155 155 
162 162 162 
127 127 127 
59 59 59 
10 10 10 
50 50 50 
46 46 46 
10 10 10 
29 29 29 
62 62 62 
93 93 93 
